<svg width="1735" height="146" viewBox="0 0 1735 146" fill="none" xmlns="http://www.w3.org/2000/svg">
<path d="M73.8468 145.302C63.1889 145.302 53.3658 143.632 44.3774 140.292C35.5173 136.825 27.7486 131.944 21.0715 125.65C14.5227 119.357 9.38644 111.971 5.66263 103.494C2.06723 95.0174 0.269531 85.7055 0.269531 75.5588C0.269531 65.4121 2.06723 56.1001 5.66263 47.6231C9.38644 39.1461 14.5869 31.7607 21.2641 25.4672C27.9412 19.1737 35.7741 14.3572 44.7626 11.0177C53.751 7.54987 63.6384 5.81594 74.4246 5.81594C86.3665 5.81594 97.0884 7.80674 106.591 11.7884C116.221 15.77 124.311 21.5498 130.86 29.1278L110.828 47.6231C105.948 42.4856 100.62 38.6965 94.8413 36.2562C89.063 33.6873 82.7711 32.403 75.9655 32.403C69.4167 32.403 63.4458 33.4306 58.0527 35.4855C52.6596 37.5405 47.9727 40.4947 43.9921 44.3479C40.1399 48.2011 37.1224 52.7607 34.9394 58.0267C32.885 63.2928 31.8577 69.1367 31.8577 75.5588C31.8577 81.8523 32.885 87.6321 34.9394 92.8982C37.1224 98.1643 40.1399 102.788 43.9921 106.77C47.9727 110.623 52.5954 113.577 57.8601 115.632C63.2532 117.687 69.1599 118.715 75.5803 118.715C81.7438 118.715 87.7147 117.751 93.4931 115.825C99.3997 113.77 105.114 110.366 110.635 105.614L128.356 128.155C121.036 133.678 112.497 137.916 102.738 140.87C93.1078 143.825 83.4773 145.302 73.8468 145.302ZM99.8492 124.109V73.4395H128.356V128.155L99.8492 124.109ZM155.222 142.99V0.0361328H185.27V142.99H155.222ZM262.464 144.531C251.421 144.531 241.598 142.219 232.995 137.595C224.52 132.971 217.779 126.678 212.771 118.715C207.891 110.623 205.452 101.439 205.452 91.1642C205.452 80.7606 207.891 71.5772 212.771 63.6139C217.779 55.5222 224.52 49.2287 232.995 44.7332C241.598 40.1094 251.421 37.7975 262.464 37.7975C273.379 37.7975 283.137 40.1094 291.741 44.7332C300.344 49.2287 307.085 55.4579 311.965 63.4212C316.844 71.3845 319.285 80.6322 319.285 91.1642C319.285 101.439 316.844 110.623 311.965 118.715C307.085 126.678 300.344 132.971 291.741 137.595C283.137 142.219 273.379 144.531 262.464 144.531ZM262.464 119.871C267.472 119.871 271.966 118.715 275.947 116.403C279.927 114.091 283.074 110.816 285.385 106.577C287.696 102.21 288.852 97.0724 288.852 91.1642C288.852 85.1275 287.696 79.99 285.385 75.7514C283.074 71.5129 279.927 68.2377 275.947 65.9258C271.966 63.6139 267.472 62.4579 262.464 62.4579C257.457 62.4579 252.962 63.6139 248.982 65.9258C245 68.2377 241.79 71.5129 239.351 75.7514C237.04 79.99 235.884 85.1275 235.884 91.1642C235.884 97.0724 237.04 102.21 239.351 106.577C241.79 110.816 245 114.091 248.982 116.403C252.962 118.715 257.457 119.871 262.464 119.871ZM400.619 144.531C391.501 144.531 383.669 142.604 377.12 138.751C370.572 134.898 365.564 129.054 362.097 121.219C358.63 113.256 356.896 103.238 356.896 91.1642C356.896 78.9624 358.693 68.9441 362.289 61.1093C366.012 53.2745 371.149 47.4305 377.698 43.5773C384.247 39.7241 391.887 37.7975 400.619 37.7975C410.377 37.7975 419.109 39.981 426.814 44.3479C434.646 48.7148 440.81 54.8799 445.305 62.8432C449.927 70.8066 452.239 80.2469 452.239 91.1642C452.239 101.953 449.927 111.329 445.305 119.293C440.81 127.256 434.646 133.485 426.814 137.981C419.109 142.347 410.377 144.531 400.619 144.531ZM339.369 142.99V0.0361328H369.416V60.3387L367.49 90.9716L368.068 121.797V142.99H339.369ZM395.418 119.871C400.426 119.871 404.856 118.715 408.709 116.403C412.689 114.091 415.835 110.816 418.146 106.577C420.586 102.21 421.805 97.0724 421.805 91.1642C421.805 85.1275 420.586 79.99 418.146 75.7514C415.835 71.5129 412.689 68.2377 408.709 65.9258C404.856 63.6139 400.426 62.4579 395.418 62.4579C390.411 62.4579 385.916 63.6139 381.936 65.9258C377.954 68.2377 374.809 71.5129 372.498 75.7514C370.186 79.99 369.031 85.1275 369.031 91.1642C369.031 97.0724 370.186 102.21 372.498 106.577C374.809 110.816 377.954 114.091 381.936 116.403C385.916 118.715 390.411 119.871 395.418 119.871ZM534.221 142.99V122.76L532.295 118.329V82.1092C532.295 75.6872 530.304 70.678 526.324 67.0818C522.472 63.4855 516.501 61.6873 508.412 61.6873C502.889 61.6873 497.433 62.5863 492.04 64.3845C486.775 66.0542 482.28 68.3661 478.557 71.3203L467.771 50.3203C473.42 46.3388 480.226 43.2562 488.187 41.0727C496.148 38.8892 504.237 37.7975 512.456 37.7975C528.25 37.7975 540.513 41.5223 549.245 48.9717C557.976 56.4212 562.343 68.045 562.343 83.8432V142.99H534.221ZM502.633 144.531C494.544 144.531 487.61 143.182 481.831 140.485C476.053 137.66 471.623 133.87 468.541 129.118C465.459 124.366 463.919 119.036 463.919 113.127C463.919 106.962 465.395 101.568 468.349 96.944C471.43 92.3202 476.246 88.7239 482.794 86.1551C489.343 83.4578 497.881 82.1092 508.412 82.1092H535.955V99.6413H511.686C504.623 99.6413 499.744 100.797 497.048 103.109C494.479 105.421 493.195 108.311 493.195 111.779C493.195 115.632 494.672 118.715 497.625 121.026C500.707 123.21 504.88 124.302 510.145 124.302C515.153 124.302 519.646 123.146 523.628 120.834C527.608 118.394 530.497 114.861 532.295 110.238L536.918 124.109C534.735 130.788 530.754 135.861 524.976 139.329C519.198 142.797 511.749 144.531 502.633 144.531ZM589.537 142.99V0.0361328H619.584V142.99H589.537ZM768.662 145.302C758.261 145.302 748.565 143.632 739.577 140.292C730.717 136.825 723.013 131.944 716.463 125.65C709.915 119.357 704.778 111.971 701.055 103.494C697.459 95.0174 695.662 85.7055 695.662 75.5588C695.662 65.4121 697.459 56.1001 701.055 47.6231C704.778 39.1461 709.915 31.7607 716.463 25.4672C723.141 19.1737 730.91 14.3572 739.77 11.0177C748.63 7.54987 758.324 5.81594 768.854 5.81594C780.539 5.81594 791.068 7.87097 800.442 11.981C809.943 15.9626 817.905 21.871 824.326 29.7058L804.295 48.2011C799.672 42.935 794.535 39.0177 788.886 36.4488C783.235 33.7516 777.072 32.403 770.395 32.403C764.102 32.403 758.324 33.4306 753.06 35.4855C747.795 37.5405 743.237 40.4947 739.385 44.3479C735.533 48.2011 732.514 52.7607 730.332 58.0267C728.277 63.2928 727.25 69.1367 727.25 75.5588C727.25 81.9808 728.277 87.8247 730.332 93.0908C732.514 98.3569 735.533 102.916 739.385 106.77C743.237 110.623 747.795 113.577 753.06 115.632C758.324 117.687 764.102 118.715 770.395 118.715C777.072 118.715 783.235 117.43 788.886 114.861C794.535 112.164 799.672 108.118 804.295 102.724L824.326 121.219C817.905 129.054 809.943 135.026 800.442 139.137C791.068 143.247 780.474 145.302 768.662 145.302ZM843.279 142.99V0.0361328H873.326V142.99H843.279ZM964.774 142.99V122.76L962.848 118.329V82.1092C962.848 75.6872 960.857 70.678 956.877 67.0818C953.025 63.4855 947.054 61.6873 938.964 61.6873C933.441 61.6873 927.985 62.5863 922.592 64.3845C917.327 66.0542 912.832 68.3661 909.109 71.3203L898.323 50.3203C903.972 46.3388 910.778 43.2562 918.74 41.0727C926.7 38.8892 934.79 37.7975 943.009 37.7975C958.803 37.7975 971.065 41.5223 979.797 48.9717C988.528 56.4212 992.895 68.045 992.895 83.8432V142.99H964.774ZM933.186 144.531C925.096 144.531 918.162 143.182 912.384 140.485C906.605 137.66 902.175 133.87 899.094 129.118C896.012 124.366 894.471 119.036 894.471 113.127C894.471 106.962 895.947 101.568 898.901 96.944C901.983 92.3202 906.798 88.7239 913.347 86.1551C919.896 83.4578 928.434 82.1092 938.964 82.1092H966.507V99.6413H942.238C935.175 99.6413 930.296 100.797 927.6 103.109C925.031 105.421 923.748 108.311 923.748 111.779C923.748 115.632 925.224 118.715 928.178 121.026C931.259 123.21 935.432 124.302 940.697 124.302C945.705 124.302 950.199 123.146 954.18 120.834C958.16 118.394 961.049 114.861 962.848 110.238L967.47 124.109C965.287 130.788 961.307 135.861 955.528 139.329C949.75 142.797 942.302 144.531 933.186 144.531ZM1054.95 144.531C1046.09 144.531 1037.55 143.503 1029.33 141.448C1021.24 139.265 1014.82 136.568 1010.07 133.357L1020.09 111.779C1024.84 114.733 1030.43 117.173 1036.85 119.1C1043.39 120.898 1049.81 121.797 1056.11 121.797C1063.04 121.797 1067.92 120.962 1070.75 119.293C1073.7 117.623 1075.18 115.311 1075.18 112.357C1075.18 109.917 1074.02 108.118 1071.71 106.962C1069.53 105.678 1066.57 104.715 1062.85 104.072C1059.12 103.43 1055.01 102.788 1050.52 102.146C1046.15 101.504 1041.72 100.669 1037.23 99.6413C1032.74 98.4853 1028.63 96.8156 1024.9 94.6321C1021.18 92.4486 1018.16 89.4946 1015.85 85.7698C1013.67 82.0449 1012.58 77.2285 1012.58 71.3203C1012.58 64.7698 1014.44 58.99 1018.16 53.9809C1022.02 48.9717 1027.54 45.0543 1034.73 42.2286C1041.92 39.2745 1050.52 37.7975 1060.54 37.7975C1067.6 37.7975 1074.79 38.5681 1082.11 40.1094C1089.43 41.6507 1095.53 43.8983 1100.41 46.8525L1090.39 68.2377C1085.38 65.2835 1080.31 63.2928 1075.18 62.2653C1070.17 61.1093 1065.29 60.5313 1060.54 60.5313C1053.86 60.5313 1048.98 61.4303 1045.9 63.2286C1042.82 65.0268 1041.28 67.3387 1041.28 70.1643C1041.28 72.7332 1042.37 74.6598 1044.55 75.9441C1046.86 77.2285 1049.88 78.256 1053.6 79.0267C1057.33 79.7973 1061.37 80.5037 1065.74 81.1459C1070.23 81.6596 1074.73 82.4945 1079.22 83.6505C1083.71 84.8065 1087.76 86.4761 1091.36 88.6597C1095.08 90.7146 1098.1 93.6045 1100.41 97.3293C1102.72 100.926 1103.87 105.678 1103.87 111.586C1103.87 118.008 1101.95 123.724 1098.1 128.733C1094.24 133.614 1088.66 137.467 1081.34 140.292C1074.15 143.118 1065.35 144.531 1054.95 144.531ZM1157.28 144.531C1148.42 144.531 1139.88 143.503 1131.66 141.448C1123.57 139.265 1117.15 136.568 1112.4 133.357L1122.41 111.779C1127.16 114.733 1132.75 117.173 1139.17 119.1C1145.72 120.898 1152.14 121.797 1158.43 121.797C1165.37 121.797 1170.24 120.962 1173.07 119.293C1176.02 117.623 1177.5 115.311 1177.5 112.357C1177.5 109.917 1176.34 108.118 1174.03 106.962C1171.85 105.678 1168.9 104.715 1165.17 104.072C1161.45 103.43 1157.34 102.788 1152.85 102.146C1148.48 101.504 1144.05 100.669 1139.56 99.6413C1135.06 98.4853 1130.95 96.8156 1127.23 94.6321C1123.5 92.4486 1120.49 89.4946 1118.18 85.7698C1115.99 82.0449 1114.9 77.2285 1114.9 71.3203C1114.9 64.7698 1116.76 58.99 1120.49 53.9809C1124.34 48.9717 1129.86 45.0543 1137.05 42.2286C1144.24 39.2745 1152.85 37.7975 1162.86 37.7975C1169.92 37.7975 1177.11 38.5681 1184.43 40.1094C1191.75 41.6507 1197.85 43.8983 1202.73 46.8525L1192.72 68.2377C1187.71 65.2835 1182.64 63.2928 1177.5 62.2653C1172.49 61.1093 1167.61 60.5313 1162.86 60.5313C1156.18 60.5313 1151.31 61.4303 1148.22 63.2286C1145.14 65.0268 1143.6 67.3387 1143.6 70.1643C1143.6 72.7332 1144.69 74.6598 1146.88 75.9441C1149.19 77.2285 1152.2 78.256 1155.93 79.0267C1159.65 79.7973 1163.7 80.5037 1168.06 81.1459C1172.56 81.6596 1177.05 82.4945 1181.54 83.6505C1186.04 84.8065 1190.08 86.4761 1193.68 88.6597C1197.4 90.7146 1200.42 93.6045 1202.73 97.3293C1205.04 100.926 1206.2 105.678 1206.2 111.586C1206.2 118.008 1204.27 123.724 1200.42 128.733C1196.57 133.614 1190.98 137.467 1183.66 140.292C1176.47 143.118 1167.68 144.531 1157.28 144.531ZM1224.74 142.99V39.3387H1253.44V68.623L1249.39 60.146C1252.47 52.8249 1257.42 47.3021 1264.22 43.5773C1271.03 39.7241 1279.31 37.7975 1289.07 37.7975V65.5405C1287.78 65.4121 1286.63 65.3478 1285.6 65.3478C1284.58 65.2194 1283.48 65.1552 1282.33 65.1552C1274.11 65.1552 1267.43 67.5313 1262.3 72.2836C1257.29 76.9074 1254.79 84.1642 1254.79 94.0541V142.99H1224.74ZM1355.49 144.531C1344.45 144.531 1334.63 142.219 1326.02 137.595C1317.55 132.971 1310.81 126.678 1305.8 118.715C1300.92 110.623 1298.48 101.439 1298.48 91.1642C1298.48 80.7606 1300.92 71.5772 1305.8 63.6139C1310.81 55.5222 1317.55 49.2287 1326.02 44.7332C1334.63 40.1094 1344.45 37.7975 1355.49 37.7975C1366.41 37.7975 1376.16 40.1094 1384.77 44.7332C1393.37 49.2287 1400.11 55.4579 1404.99 63.4212C1409.87 71.3845 1412.31 80.6322 1412.31 91.1642C1412.31 101.439 1409.87 110.623 1404.99 118.715C1400.11 126.678 1393.37 132.971 1384.77 137.595C1376.16 142.219 1366.41 144.531 1355.49 144.531ZM1355.49 119.871C1360.5 119.871 1364.99 118.715 1368.97 116.403C1372.95 114.091 1376.1 110.816 1378.41 106.577C1380.72 102.21 1381.88 97.0724 1381.88 91.1642C1381.88 85.1275 1380.72 79.99 1378.41 75.7514C1376.1 71.5129 1372.95 68.2377 1368.97 65.9258C1364.99 63.6139 1360.5 62.4579 1355.49 62.4579C1350.48 62.4579 1345.99 63.6139 1342.01 65.9258C1338.03 68.2377 1334.82 71.5129 1332.38 75.7514C1330.07 79.99 1328.91 85.1275 1328.91 91.1642C1328.91 97.0724 1330.07 102.21 1332.38 106.577C1334.82 110.816 1338.03 114.091 1342.01 116.403C1345.99 118.715 1350.48 119.871 1355.49 119.871ZM1481.7 144.531C1470.66 144.531 1460.84 142.219 1452.24 137.595C1443.76 132.971 1437.02 126.678 1432.01 118.715C1427.13 110.623 1424.69 101.439 1424.69 91.1642C1424.69 80.7606 1427.13 71.5772 1432.01 63.6139C1437.02 55.5222 1443.76 49.2287 1452.24 44.7332C1460.84 40.1094 1470.66 37.7975 1481.7 37.7975C1492.62 37.7975 1502.38 40.1094 1510.98 44.7332C1519.58 49.2287 1526.32 55.4579 1531.21 63.4212C1536.08 71.3845 1538.52 80.6322 1538.52 91.1642C1538.52 101.439 1536.08 110.623 1531.21 118.715C1526.32 126.678 1519.58 132.971 1510.98 137.595C1502.38 142.219 1492.62 144.531 1481.7 144.531ZM1481.7 119.871C1486.71 119.871 1491.21 118.715 1495.19 116.403C1499.17 114.091 1502.31 110.816 1504.63 106.577C1506.94 102.21 1508.1 97.0724 1508.1 91.1642C1508.1 85.1275 1506.94 79.99 1504.63 75.7514C1502.31 71.5129 1499.17 68.2377 1495.19 65.9258C1491.21 63.6139 1486.71 62.4579 1481.7 62.4579C1476.7 62.4579 1472.2 63.6139 1468.22 65.9258C1464.24 68.2377 1461.03 71.5129 1458.59 75.7514C1456.28 79.99 1455.12 85.1275 1455.12 91.1642C1455.12 97.0724 1456.28 102.21 1458.59 106.577C1461.03 110.816 1464.24 114.091 1468.22 116.403C1472.2 118.715 1476.7 119.871 1481.7 119.871ZM1691.32 37.7975C1699.53 37.7975 1706.79 39.4671 1713.08 42.8066C1719.5 46.0176 1724.51 51.0267 1728.11 57.8341C1731.82 64.5129 1733.69 73.1185 1733.69 83.6505V142.99H1703.64V88.2743C1703.64 79.9257 1701.91 73.7606 1698.45 69.779C1694.97 65.7974 1690.1 63.8065 1683.81 63.8065C1679.44 63.8065 1675.52 64.8341 1672.06 66.8891C1668.59 68.8157 1665.89 71.7699 1663.96 75.7514C1662.03 79.733 1661.07 84.8065 1661.07 90.9716V142.99H1631.03V88.2743C1631.03 79.9257 1629.29 73.7606 1625.83 69.779C1622.49 65.7974 1617.67 63.8065 1611.38 63.8065C1607.02 63.8065 1603.11 64.8341 1599.63 66.8891C1596.17 68.8157 1593.48 71.7699 1591.55 75.7514C1589.62 79.733 1588.66 84.8065 1588.66 90.9716V142.99H1558.61V39.3387H1587.31V67.6597L1581.92 59.3754C1585.52 52.3112 1590.59 46.9809 1597.13 43.3846C1603.81 39.6598 1611.38 37.7975 1619.85 37.7975C1629.36 37.7975 1637.64 40.2378 1644.7 45.1185C1651.89 49.8708 1656.65 57.1918 1658.96 67.0818L1648.37 64.1919C1651.83 56.1001 1657.35 49.6781 1664.92 44.9259C1672.63 40.1737 1681.43 37.7975 1691.32 37.7975Z" fill="black"/>
</svg>
